<svg xmlns="http://www.w3.org/2000/svg" xmlns:svg="http://www.w3.org/2000/svg" id="svg939" width="48" height="24" version="1.1"><defs id="defs943"><filter style="color-interpolation-filters:sRGB" id="filter863" width="1.294" height="1.294" x="-.147" y="-.147"><feGaussianBlur id="feGaussianBlur865" stdDeviation="1.103"/></filter></defs><rect id="rect2" width="48" height="24" x="-48" y="-.02" fill="#AB47BC" stroke-width="0" rx="12" ry="12" transform="scale(-1,1)" style="paint-order:stroke fill markers;fill:#cba6f7;fill-opacity:1"/><circle cx="36" cy="13" r="9" fill="#fff" stroke-width="0" style="opacity:.35;fill:#000;paint-order:stroke fill markers;filter:url(#filter863)" id="circle307"/><circle cx="36" cy="12" r="9" fill="#fff" stroke-width="0" style="paint-order:stroke fill markers;fill:#1a1b26;fill-opacity:1" id="circle4"/><path id="rect876" style="opacity:.1;fill:#fff;paint-order:stroke fill markers" d="m 12,-0.01953125 c -6.6479934,0 -12,5.35200665 -12,12.00000025 0,0.171056 0.00665429,0.340494 0.01367188,0.509765 C 0.27938822,6.080891 5.523063,1 12,1 H 36 C 42.476937,1 47.720612,6.080891 47.986328,12.490234 47.993346,12.320963 48,12.151525 48,11.980469 48,5.3324754 42.647993,-0.01953125 36,-0.01953125 Z"/><path id="circle1665" style="paint-order:stroke fill markers;fill:#fff;fill-opacity:1;opacity:.1" d="M 36 3 A 9 9 0 0 0 27 12 A 9 9 0 0 0 27.035156 12.5 A 9 9 0 0 1 36 4 A 9 9 0 0 1 44.974609 12.359375 A 9 9 0 0 0 45 12 A 9 9 0 0 0 36 3 z"/></svg>